<svg width="704" height="554" viewBox="0 0 704 554" fill="none" xmlns="http://www.w3.org/2000/svg">
<g opacity="0.1" clip-path="url(#clip0_34_7)">
<path d="M209.436 154.091C243.658 146.829 279.938 147.753 313.336 137.143C358.404 123.116 393.297 90.5151 431.042 63.8601C469.193 37.5755 517.849 16.0784 563.065 29.6225C623.217 47.5578 644.538 115.254 656.533 172.568C669.354 233.603 682.175 294.639 694.997 356.046C702.022 388.424 708.257 423.786 691.486 453.309C670.323 490.681 620.818 503.986 576.115 510.931C398.516 539.45 -69.3245 561.323 61.7237 269.263C87.2147 212.122 144.213 167.852 209.436 154.091Z" fill="url(#paint0_linear_34_7)"/>
</g>
<g opacity="0.1" clip-path="url(#clip1_34_7)">
<path d="M181.717 167.451C215.263 157.525 251.504 155.598 283.966 142.398C327.794 124.877 360.019 89.6373 395.556 60.1014C431.526 30.9029 478.344 5.65243 524.483 15.6051C585.858 28.7629 612.427 94.5766 628.884 150.772C646.457 210.612 664.03 270.453 681.634 330.664C691.179 362.39 700.171 397.154 685.77 427.903C667.606 466.82 619.297 483.97 575.278 494.404C400.466 536.777 -64.2136 595.31 43.5022 293.864C64.4286 234.897 117.776 186.29 181.717 167.451Z" fill="url(#paint1_linear_34_7)"/>
</g>
<path d="M135.546 477.569C135.546 477.569 105.76 483.021 104.307 483.021C92.3205 483.748 42.9202 498.651 44.3732 508.828C45.0997 510.282 52.0012 512.099 54.9071 507.011C65.0777 511.736 68.7101 510.282 75.6116 507.374C80.3337 505.557 84.3293 504.466 88.3249 508.465C91.9573 512.463 103.581 516.098 110.119 512.463C115.931 509.192 113.751 503.739 118.11 499.378C118.474 499.014 147.533 492.108 148.259 491.744C153.708 487.383 137.725 476.478 135.546 477.569Z" fill="#F4A082"/>
<path fill-rule="evenodd" clip-rule="evenodd" d="M526.752 140.619C526.752 140.619 517.671 99.5458 482.8 88.6413C456.284 80.2812 409.79 79.5542 391.991 119.901C372.013 166.063 399.982 161.338 386.906 181.693C373.829 202.048 353.851 195.869 350.219 212.225C346.586 228.582 361.116 251.118 356.757 260.205C352.035 269.292 329.151 286.012 334.963 300.552C341.864 317.999 356.031 322.361 350.945 331.448C341.138 348.895 323.702 345.624 326.245 349.622C328.788 353.62 383.273 377.247 401.072 358.345C414.512 344.533 407.973 321.997 410.153 311.456C414.875 290.374 445.387 280.197 464.638 272.564C484.253 264.93 486.433 236.215 491.881 222.766C497.693 209.681 537.649 210.771 526.752 140.619Z" fill="#1D3542"/>
<path d="M480.984 97.7289C464.639 88.6418 422.503 85.3705 404.341 125.717C387.269 163.883 413.422 173.697 400.346 193.688C387.269 213.68 366.565 208.955 362.932 225.311C359.3 241.668 373.829 256.934 369.107 266.021C364.385 275.108 343.317 286.74 349.129 300.916C356.031 318.363 370.923 323.088 344.407 348.532" stroke="#01080A" stroke-miterlimit="10" stroke-linecap="round" stroke-linejoin="round"/>
<path d="M394.17 117.719C374.192 156.612 391.628 155.158 378.188 176.967C364.748 198.776 345.86 194.051 341.864 211.498C337.868 228.945 354.577 250.027 349.855 259.841C345.133 269.655 325.882 284.558 335.326 300.188" stroke="#01080A" stroke-miterlimit="10" stroke-linecap="round" stroke-linejoin="round"/>
<path d="M484.98 108.269C468.634 99.1819 464.275 114.812 413.785 127.534C396.713 165.699 427.588 177.694 414.512 198.049C401.435 218.404 380.73 213.315 377.098 229.672C373.466 246.029 387.995 261.295 383.273 270.382C378.551 279.469 357.483 291.101 363.295 305.277C370.197 322.724 385.089 327.449 358.573 352.893" stroke="#01080A" stroke-miterlimit="10" stroke-linecap="round" stroke-linejoin="round"/>
<path d="M441.754 136.985C422.503 174.06 453.015 187.872 438.848 207.5C424.682 227.128 404.341 220.949 399.619 236.942C395.26 252.936 409.063 268.929 403.978 278.016C398.892 287.103 377.098 297.28 382.183 312.183C388.359 329.994 397.076 330.721 369.107 355.074" stroke="#01080A" stroke-miterlimit="10" stroke-linecap="round" stroke-linejoin="round"/>
<path d="M473.356 147.525C450.472 182.42 479.168 199.14 463.186 217.314C447.203 235.488 427.225 227.128 421.413 242.758C415.238 258.388 427.225 275.471 421.413 283.831C415.238 292.191 392.718 300.188 396.35 315.454C400.709 333.629 409.063 335.446 378.915 356.891" stroke="#01080A" stroke-miterlimit="10" stroke-linecap="round" stroke-linejoin="round"/>
<path d="M452.652 177.695C451.199 185.691 450.472 216.587 446.477 215.86C445.024 215.497 433.763 216.951 431.947 216.951C419.234 218.768 397.077 215.86 392.354 228.219C387.996 239.123 433.037 279.833 426.135 306.731C423.23 317.999 411.606 356.891 410.88 368.523C462.822 377.973 516.945 369.25 516.218 364.888C516.218 336.173 501.689 321.634 504.595 298.007C506.774 295.099 514.402 271.11 514.765 263.84C515.129 256.934 548.183 234.398 531.111 223.13C509.68 209.318 483.164 219.132 482.437 214.043C481.711 208.954 482.074 195.869 480.258 181.693C478.442 168.971 454.105 169.334 452.652 177.695Z" fill="#F4A082"/>
<path opacity="0.6" d="M478.441 187.872C478.441 193.688 468.634 202.411 459.553 202.048C450.472 202.048 450.393 198.365 451.293 192.282C451.293 186.466 450.109 180.239 459.19 180.239C468.634 180.602 478.441 181.693 478.441 187.872Z" fill="#DB8C70"/>
<path d="M434.127 149.344C434.127 149.344 428.315 143.164 427.952 150.797C427.225 166.791 436.669 168.972 437.759 169.335C439.212 169.699 434.127 149.344 434.127 149.344Z" fill="#F4A082"/>
<path d="M498.056 149.706C498.056 149.706 503.868 143.526 504.231 151.16C504.958 167.153 495.514 169.334 494.424 169.697C492.971 170.061 498.056 149.706 498.056 149.706Z" fill="#F4A082"/>
<path fill-rule="evenodd" clip-rule="evenodd" d="M434.49 133.713C433.763 139.165 433.037 145.708 433.4 152.614C433.4 184.964 452.652 193.688 469.361 194.051C491.518 195.142 502.415 164.609 500.236 146.798C498.783 135.53 497.33 130.442 493.698 123.535C480.984 105.361 484.617 119.537 434.49 133.713Z" fill="#F4A082"/>
<path d="M515.068 251.667C509.85 244.123 505.602 229.656 504.036 223.14C502.469 216.623 500.997 215.558 500.997 215.558C500.997 215.558 496.62 214.544 495.186 215.66C495.569 216.744 506.237 245.277 502.656 248.248C499.795 250.843 473.517 264.752 463.417 268.927C453.178 265.107 424.616 252.155 421.666 249.662C418.347 246.811 427.33 218.611 427.674 217.515C425.425 217.064 422.05 217.515 422.05 217.515C422.05 217.515 420.753 218.05 419.414 224.617C418.075 231.184 416.13 244.669 411.918 253.104C405.257 267.034 405.548 283.752 419.226 297.328C419.965 298.042 421.106 300.93 421.857 302.371C422.978 304.17 419.808 330.763 419.808 330.763C444.701 341.598 496.942 337.414 510.241 329.184C510.241 329.184 508.926 295.398 509.64 294.659C521.811 284.267 520.285 259.21 515.068 251.667Z" fill="#FFD2B9"/>
<path d="M466.818 140.256C468.634 148.252 467.181 156.613 466.455 158.067C465.002 160.247 461.369 158.43 461.733 160.247C462.459 164.609 467.908 164.973 470.45 163.155" stroke="#EFAFA3" stroke-width="1.38" stroke-miterlimit="10" stroke-linecap="round" stroke-linejoin="round"/>
<path opacity="0.69" d="M442.844 137.712C445.024 136.621 449.746 135.894 453.378 137.348" stroke="#682C1A" stroke-width="1.31" stroke-miterlimit="10" stroke-linecap="round" stroke-linejoin="round"/>
<path d="M454.468 149.343C452.652 152.251 446.114 152.614 443.934 149.706" stroke="#49241B" stroke-miterlimit="10" stroke-linecap="round" stroke-linejoin="round"/>
<path d="M490.065 149.707C488.249 152.614 481.711 152.978 479.531 150.07" stroke="#49241B" stroke-miterlimit="10" stroke-linecap="round" stroke-linejoin="round"/>
<path opacity="0.69" d="M489.339 138.075C487.159 136.985 482.074 136.258 478.442 137.712" stroke="#682C1A" stroke-width="1.31" stroke-miterlimit="10" stroke-linecap="round" stroke-linejoin="round"/>
<path d="M459.19 173.425C459.916 174.879 468.634 179.241 474.446 173.062" stroke="#BC4926" stroke-width="1.45" stroke-miterlimit="10" stroke-linecap="round" stroke-linejoin="round"/>
<path opacity="0.24" fill-rule="evenodd" clip-rule="evenodd" d="M453.741 162.792C452.288 165.7 447.566 166.427 443.208 164.973C438.849 163.156 436.669 159.521 438.485 156.613C439.938 153.705 444.66 152.978 449.019 154.432C453.378 156.249 455.194 159.884 453.741 162.792Z" fill="#ED5851"/>
<path opacity="0.24" fill-rule="evenodd" clip-rule="evenodd" d="M480.984 163.156C482.8 165.7 487.522 166.427 491.518 164.246C495.514 162.065 497.33 158.431 495.514 155.523C493.697 152.978 488.975 152.251 484.98 154.432C480.621 156.613 478.805 160.611 480.984 163.156Z" fill="#ED5851"/>
<path d="M465.728 365.251C465.728 367.069 465.002 368.886 463.912 368.886C462.823 368.886 462.096 367.432 462.096 365.251C462.096 363.434 462.823 361.616 463.912 361.616C464.639 361.98 465.728 363.434 465.728 365.251Z" fill="#EFAFA3"/>
<path d="M429.768 117.72C435.216 108.633 458.464 93.73 482.074 96.2744" stroke="#01080A" stroke-miterlimit="10" stroke-linecap="round" stroke-linejoin="round"/>
<path d="M622.647 282.377C626.279 270.746 613.203 252.208 595.767 259.478C574.336 264.93 514.765 351.075 514.765 351.075C514.765 351.075 473.356 365.251 412.696 355.074C410.516 360.162 403.978 374.702 403.978 374.702C403.978 374.702 350.219 403.78 270.307 440.129C239.068 454.304 135.183 476.113 135.183 477.204C135.183 480.839 135.183 493.561 135.183 493.561C135.183 493.561 257.593 507.373 295.37 466.663C295.37 466.663 393.807 457.212 466.455 423.772C518.761 428.134 539.466 399.419 571.43 360.162C596.494 329.266 616.835 300.915 622.647 282.377Z" fill="#1F5148"/>
<path d="M411.928 358.097C411.928 358.097 460.965 372.966 513.676 354.71" stroke="#1D4941" stroke-width="1.44" stroke-miterlimit="10" stroke-linecap="round" stroke-linejoin="round"/>
<path d="M410.354 361.477C410.354 361.477 462.54 377.923 512.223 358.709" stroke="#1D4941" stroke-width="1.44" stroke-miterlimit="10" stroke-linecap="round" stroke-linejoin="round"/>
<path d="M515.401 351.113L506.048 373.247" stroke="#1D4941" stroke-width="1.44" stroke-miterlimit="10" stroke-linecap="round"/>
<path d="M590.682 420.501C590.682 420.501 583.78 449.217 583.417 450.671C582.691 457.94 586.323 470.299 579.058 498.287C591.408 500.104 587.413 509.918 578.332 509.918C552.542 509.918 559.443 493.561 563.439 482.294C565.255 477.205 562.713 471.753 558.717 468.118C554.721 464.483 550.363 453.215 553.632 446.672C556.901 440.857 564.529 442.31 568.524 437.949C568.888 437.585 568.161 413.232 568.524 412.505C572.883 405.962 591.408 418.321 590.682 420.501Z" fill="#F4A082"/>
<path d="M622.647 275.834C627.369 312.909 590.319 404.507 590.319 435.767C590.319 435.767 575.789 442.309 568.161 433.949C569.251 407.052 547.093 359.072 582.327 311.456C603.758 282.013 609.57 284.194 622.647 275.834Z" fill="#1F5148"/>
<path d="M575.212 316.37C575.212 316.37 558.978 343.455 562.414 377.247" stroke="#1D4941" stroke-width="1.75" stroke-miterlimit="10" stroke-linecap="round"/>
<path d="M392.354 228.219C387.269 232.581 360.026 343.807 368.744 348.168C377.825 352.53 465.728 309.276 465.728 309.276C465.728 309.276 463.912 260.206 463.912 247.484C458.827 246.757 452.652 299.098 452.652 299.098C452.652 299.098 399.619 319.09 396.713 321.634C393.807 324.179 409.426 257.661 412.696 252.572C413.785 247.484 397.803 224.221 392.354 228.219Z" fill="#F4A082"/>
<path d="M534.743 228.219C539.829 232.581 567.072 343.807 558.354 348.168C549.273 352.53 461.733 309.276 461.733 309.276C461.733 309.276 463.549 260.206 463.549 247.484C468.634 246.757 474.809 299.098 474.809 299.098C474.809 299.098 527.842 319.09 530.748 321.634C533.654 324.179 518.035 257.661 514.765 252.572C513.312 247.484 529.658 224.221 534.743 228.219Z" fill="#F4A082"/>
<path d="M463.549 310.002L463.912 246.03" stroke="#DB8C70" stroke-width="1.38" stroke-miterlimit="10" stroke-linecap="round" stroke-linejoin="round"/>
<path d="M468.634 353.983C468.634 355.8 467.544 357.254 466.455 357.254C465.365 357.254 464.639 355.437 464.639 353.619C464.639 351.802 465.728 350.348 466.818 350.348C467.908 350.348 468.997 351.802 468.634 353.983Z" fill="#DB8C70"/>
<path d="M404.341 376.883L436.669 393.24" stroke="#1D4941" stroke-width="1.44" stroke-miterlimit="10" stroke-linecap="round"/>
<path opacity="0.56" d="M609.358 512.564C609.378 514.466 486.779 517.34 335.408 518.916C184.04 520.492 61.4087 520.247 61.3881 518.268C61.3683 516.366 183.967 513.492 335.335 511.916C486.706 510.341 609.339 510.661 609.358 512.564Z" fill="black" fill-opacity="0.2"/>
<path opacity="0.5" d="M35.4768 116.321C35.4487 117.031 35.3792 117.756 35.3511 118.466C35.2374 120.514 35.2214 122.574 35.2054 124.634C35.1894 126.694 35.271 128.766 35.4355 130.809C35.5854 132.81 35.8328 134.823 36.0241 136.809C36.376 139.906 36.5887 143.005 37.0235 146.072C37.1546 147.1 37.271 148.086 37.4288 149.057C37.5666 149.708 37.8435 150.357 38.0642 150.979C38.1378 151.186 38.2796 151.323 38.4214 151.459C38.6193 151.622 38.9805 151.588 39.0875 151.363C39.153 151.153 39.2748 150.97 39.2841 150.733C39.3055 150.398 39.2855 150.079 39.2654 149.759C38.9202 146.286 38.6166 142.799 38.2714 139.327C38.04 136.701 37.9476 134.072 38.0359 131.427C38.1549 128.21 38.3301 125.019 38.6591 121.868C38.7889 120.655 38.8624 119.415 38.9507 118.216C39.1045 116.808 39.2021 115.372 39.356 113.964C39.5954 111.218 40.1424 108.549 40.7457 105.907C40.8233 105.599 40.9008 105.292 40.8955 105.014C41.0038 104.135 40.4313 103.311 39.5939 103.188C38.7419 103.023 37.9981 103.427 37.6383 104.255C37.4898 104.495 37.4537 104.788 37.3762 105.095C36.9374 106.885 36.2887 108.609 35.5276 110.28C34.8588 111.684 34.2167 113.033 33.5332 114.396C33.3995 114.677 33.2242 114.972 33.049 115.268C31.9976 117.042 31.1148 118.896 30.2882 120.776C30.0086 121.436 29.8414 122.149 29.7719 122.874C29.6542 123.989 29.8294 125.141 30.3364 126.175C30.4394 126.465 30.6106 126.685 30.8648 126.875C31.0066 127.011 31.2848 127.006 31.4359 126.905C31.5871 126.805 31.6821 126.678 31.6647 126.497C31.6593 126.219 31.5978 125.914 31.551 125.651C31.361 124.458 31.4078 123.274 31.8599 122.18C32.2732 121.239 32.7013 120.34 33.227 119.453C33.8449 118.3 34.5338 117.216 35.208 116.089C35.2347 116.033 35.3176 116.004 35.4006 115.974C35.4447 116.099 35.4889 116.223 35.4768 116.321ZM87.7727 133.573C88.1459 133.441 88.4777 133.323 88.8509 133.191C90.6607 132.502 92.5293 131.979 94.1947 131.014C94.2362 131 94.2776 130.985 94.3191 130.97C95.7116 130.289 97.0064 129.596 98.1982 128.613C98.7052 128.2 99.2536 127.772 99.7459 127.317C99.992 127.09 100.238 126.862 100.428 126.608C100.633 126.395 100.725 126.129 100.788 125.78C100.911 124.943 100.027 124.556 99.4609 124.804C99.2536 124.877 99.1024 124.977 98.9098 125.092C98.2637 125.508 97.6177 125.924 96.9983 126.284C96.2131 126.703 95.3838 126.997 94.6428 127.54C94.0943 127.968 93.475 128.328 92.8851 128.771C91.2933 129.943 89.5571 130.839 87.7352 131.626C86.3133 132.224 84.9356 132.946 83.4428 133.476C83.3184 133.52 83.2354 133.549 83.1258 133.635C82.6429 133.853 82.2015 134.056 81.76 134.259C81.4016 134.433 81.0431 134.607 80.726 134.766C80.3261 134.955 79.9676 135.129 79.5677 135.318C79.2921 135.462 78.9604 135.58 78.6848 135.724C77.6508 136.231 76.6583 136.723 75.639 137.272C74.371 137.909 73.1176 138.587 71.994 139.499C71.8576 139.641 71.6649 139.756 71.4723 139.871C71.4723 139.871 71.3894 139.9 71.3747 139.859C71.3185 139.832 71.2476 139.764 71.2329 139.723C71.2663 139.29 71.3412 138.844 71.3894 138.453C71.5164 137.101 71.7411 135.76 71.8267 134.423C71.9725 132.597 72.1036 130.73 72.1102 128.906C72.1142 126.944 72.1329 125.023 72.1102 123.117C71.9443 118.834 71.7784 114.551 71.9321 110.248C72.0445 107.406 72.1983 104.551 72.6303 101.689C72.7172 101.145 72.7895 100.559 72.9032 99.9585C72.9245 99.6241 73.0021 99.3164 72.9821 98.9967C73.0061 98.8014 72.9473 98.6356 72.8884 98.4697C72.8269 98.1647 72.4336 97.9775 72.0872 98.0537C71.8384 98.142 71.6043 98.2717 71.4973 98.4965C71.322 98.7921 71.1883 99.073 71.0692 99.3954C70.4887 101.049 70.1035 102.726 69.8721 104.442C69.5364 106.522 69.3398 108.6 69.2408 110.689C69.0349 114.451 68.9118 118.183 68.9279 121.912C68.952 123.164 68.9346 124.431 68.9173 125.697C68.8959 127.479 68.8478 129.317 68.7849 131.114C68.7288 133.981 68.6459 136.905 68.6044 139.815C68.5549 140.86 68.5469 141.89 68.5536 142.961C68.5175 143.254 68.5229 143.532 68.6259 143.822C68.7021 144.169 68.971 144.4 69.3201 144.463C69.6278 144.541 69.918 144.438 70.0933 144.142C70.2417 143.903 70.3755 143.622 70.4678 143.356C70.9172 142.122 71.6502 141.162 72.6642 140.335C72.925 140.149 73.1711 139.922 73.4734 139.721C75.1093 138.674 76.8041 137.792 78.5992 137.062C79.3871 136.782 80.175 136.503 80.9481 136.182C81.2798 136.064 81.6263 135.988 81.8871 135.802C82.5479 135.427 83.2529 135.177 83.9578 134.927C85.2433 134.471 86.5287 134.015 87.7727 133.573ZM84.2811 128.836C84.7935 130.148 85.6081 131.26 86.6836 132.186C87.3069 132.758 88.0226 133.064 88.8452 133.146C89.514 133.189 90.2096 133.175 90.8289 132.816C91.3921 132.429 91.982 131.986 92.4448 131.448C93.234 130.515 93.8961 129.486 94.4459 128.404C95.0638 127.251 95.4718 126.032 95.9212 124.799C96.6328 122.726 97.1906 120.614 97.5945 118.463C97.8219 117.261 98.0493 116.06 98.1791 114.847C98.2968 113.731 98.3583 112.589 98.3783 111.461C98.4064 107.856 98.0465 104.342 96.7008 100.945C96.6714 100.862 96.6272 100.738 96.5831 100.613C96.0828 99.2033 95.307 97.9379 94.4214 96.7581C93.6215 95.688 92.5755 94.8453 91.2445 94.3838C89.9965 93.8929 88.7297 93.8755 87.4884 94.4561C86.647 94.848 85.906 95.3911 85.2947 96.1683C84.0989 97.6665 83.5478 99.4027 83.4167 101.27C83.2442 103.152 83.489 105.026 83.9973 106.853C84.103 107.283 84.1525 107.685 84.0214 108.105C83.9559 108.315 83.9318 108.511 83.8662 108.721C83.2576 111.084 82.8443 113.472 82.5434 115.913C82.3655 117.517 82.3415 119.16 82.415 120.814C82.5676 122.955 82.803 125.065 83.6631 127.095C83.8691 127.675 84.0751 128.256 84.2811 128.836ZM86.2124 101.912L86.2659 101.8C85.9168 100.29 86.2659 98.9051 87.0203 97.6102C87.6115 96.5134 88.6308 95.9649 89.7972 95.8312C90.6172 95.7736 91.3863 95.9676 92.0364 96.4839C92.7427 97.027 93.3808 97.6409 93.8824 98.3967C94.5552 99.3718 95.1451 100.376 95.501 101.511C95.5304 101.594 95.5598 101.677 95.5892 101.76C96.6407 104.328 97.0821 107.019 97.1624 109.745C97.2494 112.095 97.141 114.422 96.713 116.768C96.4255 118.457 96.0964 120.161 95.6135 121.827C95.1333 123.631 94.4993 125.397 93.6553 127.097C93.2005 128.052 92.6334 128.954 91.9953 129.787C91.6689 130.183 91.3278 130.538 90.9158 130.824C90.5988 130.983 90.2818 131.142 89.9915 131.245C89.4792 131.38 88.9763 131.279 88.5803 130.952C87.8593 130.368 87.3992 129.597 87.0634 128.783C86.6835 127.844 86.3718 126.834 86.1431 125.794C85.7766 124.104 85.6321 122.381 85.5852 120.67C85.5103 118.222 85.7283 115.81 86.1269 113.381C86.151 113.186 86.2165 112.976 86.2821 112.766C86.3088 112.71 86.3356 112.653 86.3891 112.541C86.5135 112.497 86.5991 112.607 86.67 112.675C87.0004 113.211 87.3723 113.733 87.7027 114.269C88.4785 115.535 89.3105 116.827 90.279 117.977C90.592 118.333 90.905 118.689 91.2448 118.988C91.4013 119.166 91.626 119.273 91.8507 119.38C92.0755 119.487 92.3537 119.482 92.6025 119.394C93.0172 119.246 93.3021 118.865 93.2379 118.421C93.1175 117.95 92.9703 117.536 92.6988 117.165C92.2386 116.395 91.7517 115.68 91.2916 114.91C90.4007 113.452 89.4683 112.009 88.6871 110.465C88.1534 109.487 87.8685 108.421 87.4738 107.441C87.3708 107.15 87.407 106.857 87.4845 106.55C87.6584 105.461 87.847 104.413 88.0209 103.325C88.069 102.934 88.0878 102.461 88.0797 102.043C88.0664 101.348 87.1848 101.1 86.7608 101.484C86.6097 101.584 86.417 101.699 86.2659 101.8L86.2124 101.912ZM123.034 79.3215C122.828 78.7409 122.607 78.1189 122.401 77.5384C122.242 77.2214 122.166 76.8749 121.98 76.6141C121.85 76.38 121.664 76.1192 121.41 75.9292C121.212 75.766 120.905 75.6885 120.588 75.8476C120.297 75.9507 120.178 76.273 120.184 76.5513C120.174 76.788 120.221 77.0515 120.309 77.3003C120.695 78.5176 120.887 79.8499 121.314 81.0524C121.388 81.2597 121.42 81.4818 121.452 81.7038C121.513 82.0088 121.631 82.3405 121.693 82.6455C121.813 83.1164 121.877 83.5605 121.998 84.0313C122.238 84.973 122.272 85.9883 122.403 87.0156C122.852 90.1243 122.899 93.2824 122.57 96.4339C122.269 98.8751 121.8 101.236 121.135 103.573C120.524 105.797 119.688 107.915 118.781 109.964C117.859 111.972 116.754 113.858 115.635 115.703C115.014 116.717 114.337 117.704 113.519 118.555C113.287 118.823 113.014 119.107 112.727 119.349C112.576 119.449 112.383 119.564 112.176 119.638C111.859 119.797 111.548 119.581 111.528 119.261C111.511 119.08 111.52 118.843 111.544 118.648C111.744 116.71 111.958 114.813 112.157 112.875C112.311 111.466 112.408 110.031 112.562 108.623C112.626 107.619 112.732 106.601 112.755 105.613C112.872 103.05 112.99 100.487 113.066 97.9388C113.179 95.0977 113.264 92.3127 113.098 89.4769C113.078 89.1572 113.043 88.7961 113.023 88.4764C112.974 88.0738 112.578 87.7474 112.173 87.6578C111.782 87.6096 111.382 87.7982 111.222 88.1353C111.061 88.4724 110.927 88.7533 110.864 89.1024C110.712 89.8569 110.533 90.6675 110.436 91.4487C110.177 93.8751 109.959 96.2869 109.699 98.7134C109.687 98.811 109.675 98.9087 109.649 98.9649C109.496 101.167 109.317 103.425 109.164 105.626C108.997 107.787 108.815 109.905 108.731 112.036C108.676 114.25 108.678 116.491 109.138 118.708C109.305 119.443 109.609 120.035 110.052 120.625C110.48 121.174 111.166 121.397 111.844 121.203C112.342 121.027 112.783 120.823 113.151 120.413C113.56 119.987 114.052 119.532 114.432 119.024C115.085 118.232 115.667 117.372 116.29 116.497C117.009 115.495 117.697 114.41 118.289 113.314C119.016 112.075 119.759 110.878 120.374 109.586C120.989 108.293 121.59 106.96 122.107 105.656C122.652 104.295 123.17 102.991 123.575 101.633C124.492 98.6932 125.2 95.6875 125.378 92.6363C125.467 90.7837 125.418 88.9337 125.132 87.0744C124.991 86.2839 124.878 85.4371 124.598 84.6493C124.304 83.8199 124.009 82.9906 123.881 82.1024C123.861 81.7827 123.716 81.5072 123.628 81.2584C123.434 80.5802 123.172 79.9729 122.951 79.3509C122.993 79.3362 122.993 79.3362 123.034 79.3215ZM139.683 91.8086C138.174 92.951 136.878 94.298 135.824 95.9326C134.515 98.0314 133.835 100.327 133.8 102.86C133.813 104.21 134.13 105.498 134.669 106.754C135.438 108.395 136.86 109.245 138.585 109.239C139.657 109.233 140.681 108.963 141.618 108.443C142.732 107.768 143.832 107.051 144.775 106.156C145.279 105.604 145.854 105.119 146.344 104.525C146.887 103.819 147.444 103.154 147.987 102.448C149.005 101.106 150.038 99.8063 151.041 98.4231C151.353 97.9857 151.594 97.4801 151.849 97.0159C151.929 96.8474 151.927 96.7083 151.909 96.5277C151.921 96.43 151.794 96.3351 151.723 96.2668C151.653 96.1986 151.513 96.2013 151.487 96.2575C151.309 96.414 151.089 96.5852 150.926 96.7832C150.098 97.8707 149.229 98.9729 148.401 100.06C147.003 101.91 145.407 103.597 143.655 105.106C142.531 106.018 141.349 106.765 139.951 107.167C139.397 107.317 138.882 107.313 138.323 107.185C137.918 107.095 137.649 106.864 137.434 106.52C137.277 106.342 137.218 106.176 137.145 105.969C136.809 105.154 136.598 104.296 136.608 103.405C136.555 102.07 136.696 100.759 137.202 99.5522C137.973 97.6448 138.912 95.8175 140.217 94.2338C141.169 93.1021 142.181 92.1363 143.49 91.4849C143.615 91.4407 143.739 91.3966 143.849 91.311C143.958 91.2254 144.039 91.0568 144.021 90.8762C144.045 90.6809 143.859 90.4201 143.664 90.396C143.427 90.3867 143.176 90.3358 142.939 90.3265C142.702 90.3171 142.439 90.3639 142.173 90.2717C141.445 90.063 140.851 89.5734 140.503 88.8564C140.085 88.0713 139.79 87.2419 139.703 86.339C139.576 84.7967 139.769 83.2344 140.213 81.7228C140.645 80.3089 141.216 78.8924 141.956 77.5561C142.722 76.1636 143.728 74.9195 145.089 74.0166C145.939 73.3879 146.852 73.0642 147.849 72.8502C148.821 72.6923 149.619 72.9692 150.218 73.737C150.546 74.1343 150.832 74.5463 150.994 75.0024C151.46 76.0511 151.676 77.1881 151.795 78.313C151.813 78.4936 151.845 78.7157 151.919 78.923C151.948 79.0059 152.075 79.1009 152.187 79.1544C152.3 79.2079 152.549 79.1196 152.602 79.0073C152.656 78.8949 152.751 78.7678 152.763 78.6702C152.852 78.2649 152.915 77.9158 152.922 77.5399C152.918 76.6075 152.816 75.6632 152.507 74.7924C152.166 73.6995 151.591 72.7364 150.74 71.9178C149.804 70.9895 148.627 70.5668 147.333 70.6056C146.179 70.6417 145.086 70.9829 144.052 71.4898C142.108 72.4596 140.634 73.9632 139.47 75.6834C138.713 76.8391 138.095 77.9922 137.675 79.3084C136.913 81.6332 136.624 83.9768 137.004 86.3631C137.288 88.0833 138.134 89.4169 139.491 90.4763C139.703 90.681 139.943 90.8295 140.197 91.0194C140.268 91.0876 140.271 91.2267 140.315 91.3511C140.095 91.5224 139.917 91.6789 139.683 91.8086Z" fill="black"/>
<path opacity="0.5" d="M55.3452 163.861L56.6574 163.836L56.935 164.618L55.7616 165.035L56.9603 165.931C56.8554 167.436 55.0006 168.828 51.396 170.107L48.7968 171.47L48.822 172.782L49.2132 172.643C49.0895 174.777 50.4859 183.677 53.4025 199.342L56.3803 204.011L55.9891 204.149C55.4063 204.356 54.4221 203.237 53.0366 200.793L52.0398 196.743L51.901 196.352L51.5098 196.49L51.7874 197.273C51.0051 197.55 50.7065 197.95 50.8916 198.471L51.0304 198.863L54.0334 204.843L54.1722 205.234L53.3899 205.512L51.409 204.894L51.1566 205.424L50.7655 205.563C48.9223 203.678 47.7068 201.907 47.1189 200.251L47.6489 200.503L48.04 200.364L46.2862 197.904L47.3208 197.096L46.6268 195.14L45.8445 195.418L45.7057 195.027C46.488 194.749 46.7866 194.35 46.6016 193.828L46.4628 193.437L45.6805 193.715C44.9402 191.629 44.9612 190.447 45.7435 190.169L43.9392 185.084C44.2227 184.569 43.7726 181.646 42.589 176.315L39.9898 177.678L34.375 179.23L34.2362 178.839L36.0531 177.754L36.1919 178.145L36.4442 177.615L42.3114 175.533L41.895 174.359L35.9143 177.362L35.3844 177.11L34.9932 177.249L32.7852 178.473L31.3341 178.107L31.0313 176.012L30.5013 175.76C30.0387 174.456 31.3719 173.249 34.5011 172.139L55.3452 163.861ZM53.4147 165.868L53.5535 166.259L55.1181 165.704L54.9793 165.312L53.4147 165.868ZM46.7151 192.907L48.9864 201.79L49.7686 201.512L48.6835 199.695L48.4059 198.913L48.7718 197.462L48.3807 197.601L48.633 197.071L48.4942 196.68L47.9643 196.427L47.8255 196.036L48.0526 194.194L47.1062 192.768L46.7151 192.907ZM55.3652 163.699L56.5387 163.283L57.6238 165.099C58.4061 164.822 58.6584 164.292 58.3808 163.51L58.772 163.371L59.8318 163.875L60.2735 166.361L60.6646 166.222L60.4123 166.752L60.5511 167.143L61.081 167.396L61.2198 167.787L60.8287 167.926L61.3586 168.178L61.4974 168.569L65.6866 181.616L65.8254 182.007L66.2165 181.868L66.002 177.54L66.7843 177.263L66.6834 185.666L67.4657 185.388L67.4403 170.424L66.658 170.702L66.8978 176.342L66.1155 176.619L65.9767 176.228L66.494 168.998L66.8851 168.859L67.1627 169.642L70.0143 167.749C71.1934 167.762 71.8537 167.968 71.9952 168.367L72.2476 167.837L73.421 167.421L78.3167 176.253L78.7078 176.114C78.2942 174.949 77.9655 167.501 77.7219 153.771L78.1131 153.632L78.9206 154.667L79.3118 154.528L79.0342 153.746L79.4253 153.607C81.358 152.921 82.5399 152.942 82.9709 153.67L83.2484 154.452L82.8826 155.903L83.0214 156.294L83.8036 156.017L83.2232 153.14L84.0055 152.862L85.0654 153.367L85.2042 153.758L87.1996 187.634L86.165 188.442L85.8874 187.659L85.635 188.189L85.2439 188.328L84.7139 188.076C85.0841 189.119 84.878 189.779 84.0957 190.057C81.9443 190.613 80.7624 190.592 80.5502 189.994L80.9413 189.855C80.2179 188.644 79.3725 187.916 78.4052 187.672L73.787 179.622C73.3477 179.795 73.0785 184.001 72.9797 192.24L71.7179 194.889L71.3268 195.028L70.3805 193.602C72.0281 185.591 72.3098 179.766 71.2256 176.127C70.7803 177.062 70.4733 181.575 70.3047 189.666C69.9826 189.78 70.0163 191.53 70.4057 194.915L66.8854 196.164L65.9391 194.738L65.6867 195.268L65.2956 195.407C64.7948 193.996 64.0336 193.091 63.0118 192.694L62.4566 191.129L64.4376 191.748L61.2957 185.376L61.5481 184.846L61.0181 184.594L61.2705 184.064L60.8793 184.202L61.1317 183.672L59.1885 178.196L58.8857 176.102L58.4945 176.241L58.7469 175.711L55.1381 165.541L54.6082 165.289L54.4694 164.898L55.3652 163.699ZM78.4159 155.727C78.8169 169.072 79.2759 176.474 79.793 177.931L79.9318 178.322L80.3229 178.184L79.1982 155.449L78.4159 155.727ZM83.0735 171.042L83.5404 174.84L83.6792 175.231L84.0703 175.092L83.6034 171.294L83.4646 170.903L83.0735 171.042ZM84.0578 181.262L84.5246 185.06L84.8022 185.842L85.1934 185.704L84.5877 181.515L84.4489 181.123L84.0578 181.262ZM92.6678 151.576C92.884 152.38 93.5137 152.597 94.5567 152.227L95.8252 153.538L95.5498 154.076L95.941 153.938C96.0291 160.124 97.1534 166.918 99.3138 174.32L100.009 176.716L100.538 176.968L100.654 177.368L100.379 177.906L100.77 177.767L100.495 178.305L101.696 180.961L101.928 181.76C101.131 183.943 100.865 185.505 101.13 186.447L99.5655 187.002L97.4013 186.89L96.9819 183.956L94.9311 182.922L93.5624 176.801L91.4552 169.622L91.8901 168.147L91.427 166.549L90.9201 166.289L90.8043 165.89L91.5866 165.612L91.4708 165.213L90.9638 164.952L89.9143 156.957L89.5231 157.096L89.7985 156.558L89.0807 154.17L88.5738 153.91L88.458 153.51L92.6678 151.576ZM90.8406 160.151L91.6741 162.938L92.0652 162.8L91.2317 160.013L90.8406 160.151ZM91.6303 164.275L92.3251 166.671L92.7162 166.532L92.0215 164.136L91.6303 164.275ZM92.2813 168.008L92.999 170.395L93.3902 170.257L92.6724 167.869L92.2813 168.008ZM97.7642 183.678L98.3431 185.675L98.8708 184.606L98.5464 183.4L97.7642 183.678ZM107.209 145.613C108.084 145.889 110.37 145.372 114.067 144.06L114.183 144.459L111.445 145.431L111.561 145.83C114.828 144.671 117.146 144.729 118.514 146.005L118.745 146.804L116.79 147.498L116.905 147.897L119.759 147.325L119.875 147.724L117.528 148.557L117.644 148.956C118.426 148.679 118.894 148.806 119.049 149.339C114.401 150.988 110.853 154.155 108.406 158.841L108.521 159.24C114.047 158.799 119.107 160.38 123.701 163.982L123.817 164.382C124.063 168.094 122.513 172.167 119.164 176.602L116.91 177.843L117.026 178.242L117.808 177.964C118.028 178.681 115.913 180.312 111.462 182.858L111.231 182.06L113.187 181.366L113.094 180.958C111.422 181.552 109.587 181.175 107.589 179.829C106.211 179.644 105.223 178.708 104.624 177.021C104.57 176.868 104.52 176.704 104.476 176.53L105.418 175.315L106.823 175.697L107.605 175.419C114.559 171.656 117.523 167.962 116.496 164.337C112.858 163.867 110.54 163.808 109.543 164.162L109.659 164.561L105.261 164.36L105.768 164.621L106.023 165.411C101.922 164.172 99.6863 162.91 99.3166 161.625L100.434 155.064L101.926 152.772L102.158 153.571L107.209 145.613ZM105.619 158.068L105.734 158.467L111.11 151.715L114.008 149.806L113.776 149.008L112.994 149.285C109.412 152.283 106.954 155.211 105.619 158.068ZM113.472 173.337L113.863 173.199L114.414 172.122L114.023 172.261L113.472 173.337ZM120.513 170.839L119.527 173.391L119.918 173.252L120.904 170.7L120.513 170.839ZM116.722 175.707L116.861 176.098L117.252 175.96L118.469 174.206L116.722 175.707ZM113.253 180.021L113.369 180.42L114.934 179.865L116.774 178.772L116.635 178.381L116.244 178.519L113.253 180.021ZM141.167 133.408L142.479 133.382L142.756 134.165L141.583 134.581L142.782 135.477C142.677 136.982 140.822 138.374 137.217 139.653L134.618 141.016L134.643 142.328L135.034 142.19C134.911 144.323 136.307 153.223 139.224 168.888L142.202 173.557L141.81 173.696C141.228 173.902 140.243 172.784 138.858 170.339L137.861 166.289L137.722 165.898L137.331 166.037L137.609 166.819C136.826 167.097 136.528 167.496 136.713 168.018L136.852 168.409L139.855 174.389L139.994 174.781L139.211 175.058L137.23 174.44L136.978 174.97L136.587 175.109C134.744 173.224 133.528 171.453 132.94 169.797L133.47 170.049L133.861 169.91L132.107 167.45L133.142 166.642L132.448 164.687L131.666 164.964L131.527 164.573C132.309 164.296 132.608 163.896 132.423 163.374L132.284 162.983L131.502 163.261C130.762 161.175 130.783 159.993 131.565 159.715L129.76 154.631C130.044 154.115 129.594 151.192 128.41 145.861L125.811 147.224L120.196 148.776L120.058 148.385L121.874 147.3L122.013 147.691L122.266 147.161L128.133 145.079L127.716 143.906L121.736 146.909L121.206 146.656L120.815 146.795L118.606 148.019L117.155 147.653L116.853 145.559L116.323 145.306C115.86 144.002 117.193 142.795 120.322 141.685L141.167 133.408ZM139.236 135.414L139.375 135.805L140.939 135.25L140.801 134.859L139.236 135.414ZM132.536 162.453L134.808 171.336L135.59 171.059L134.505 169.242L134.227 168.459L134.593 167.008L134.202 167.147L134.454 166.617L134.316 166.226L133.786 165.974L133.647 165.583L133.874 163.74L132.928 162.315L132.536 162.453ZM160.356 127.401L162.708 128.043C162.977 130.556 162.375 132.021 160.9 132.441L150.848 136.526L151.08 137.325L153.061 136.777L155.349 135.706L155.873 136.013L156.272 135.897L158.951 134.687L159.758 134.478L159.874 134.878L151.12 139.046L152.203 144.361L152.603 144.245L162.93 139.622L163.422 139.914L163.538 140.313L162.731 140.521L162.87 140.913L165.775 140.556L165.89 140.955C165.84 142.613 162.516 145.123 155.92 148.482L152.034 150.017L152.541 150.277L152.418 155.917L152.027 156.055L151.008 152.453L150.608 152.569L151.776 158.269C159.213 154.455 164.581 152.084 167.878 151.156L169.976 151.007L170.23 151.798L169.432 152.029L169.924 152.321L170.271 153.519C169.868 154.767 168.419 155.748 165.926 156.46L166.042 156.859L169.245 155.956L169.453 156.762L152.201 165.89L151.801 166.005C150.445 166.176 149.672 165.992 149.482 165.455L149.457 165.386L149.11 164.188L148.689 159.571L148.174 159.288L148.964 159.033L149.52 161.038L149.928 160.945C149.619 159.587 149.702 158.849 150.179 158.732L149.655 158.425L148.552 154.439L147.745 154.647L147.902 156.768L148.208 156.245L148.607 156.129L149.279 158.533L148.872 158.626L148.532 157.451L148.133 157.566L148.365 158.365L147.965 158.481L147.734 157.682L146.633 150.638L146.234 150.754L146.462 148.549L145.947 148.265L145.831 147.866L144.339 140.96L144.854 141.244L145.253 141.128L145.022 140.329L144.066 138.441L143.447 134.723L143.099 133.525L143.507 133.432L144.022 133.716L144.305 133.201L144.713 133.108L145.22 133.368L145.503 132.853L146.709 132.529L160.356 127.401ZM146.842 151.445L147.629 154.248L148.028 154.132L147.249 151.352L146.842 151.445ZM159.929 147.371L160.32 147.232L160.413 147.639L153.579 150.867L153.056 150.561L152.949 150.184L156.435 148.766L156.55 149.165L159.929 147.371ZM168.092 124.527L169.656 123.972L171.107 124.338L173.706 122.975C178.231 121.369 183.329 122.496 188.999 126.356L192.343 129.574L192.09 130.104L193.175 131.92L193.869 133.876C196.248 140.579 192.576 147.607 182.854 154.96L179.082 156.739C178.848 156.08 178.187 155.874 177.101 156.121L177.656 157.686L176.483 158.102L175.65 155.755L175.12 155.503L175.372 154.973L175.233 154.582C173.288 154.063 172.182 153.428 171.915 152.677C168.506 140.588 166.756 131.52 166.666 125.473L167.057 125.334L167.587 125.587L168.092 124.527ZM167.915 128.993L169.984 141.031L170.123 141.422L170.514 141.283L168.584 129.637L168.306 128.855L167.915 128.993ZM175.145 129.511C175.33 130.032 174.901 130.478 173.858 130.848C174.502 135.973 175.663 141.727 177.34 148.109C178.859 147.57 182.308 144.878 187.687 140.034L187.548 139.642L186.766 139.92C188.095 137.048 188.352 134.461 187.535 132.16L187.119 130.987C186.101 128.118 183.544 127.117 179.447 127.984L175.145 129.511ZM182.968 126.735L183.106 127.126L184.949 127.353L184.81 126.962L183.359 126.596L182.968 126.735ZM188.431 130.962L189.706 135.794L190.488 135.516L190.071 134.343L189.907 132.64L188.822 130.823L188.431 130.962ZM192.28 133.119L192.545 140.071L192.683 140.463L193.074 140.324L192.948 133.763L192.671 132.98L192.28 133.119ZM189.34 137.245L189.113 139.087L189.504 138.948L189.731 137.106L189.34 137.245ZM189.491 145.118C190.072 144.809 190.707 143.703 191.396 141.8L191.258 141.409L189.491 145.118ZM181.328 150.658L181.466 151.049L183.031 150.494L184.709 149.017L184.57 148.626L184.179 148.765L181.328 150.658ZM178.337 152.159L179.145 153.194L179.927 152.916L180.432 151.856L180.293 151.465L179.902 151.604L178.867 152.412L178.337 152.159ZM174.868 156.033L175.259 155.894L175.397 156.285L174.893 157.345L174.502 157.484L174.363 157.093L174.868 156.033Z" fill="black"/>
<path opacity="0.5" d="M58.9807 227.07C58.8351 226.693 58.6325 226.403 58.3727 226.202C58.113 226.001 57.737 225.873 57.2447 225.818C56.7525 225.763 56.087 225.771 55.2482 225.844C53.9421 225.958 52.8348 225.88 51.9263 225.609C51.0178 225.337 50.3853 224.74 50.0289 223.816C49.7885 223.193 49.7411 222.573 49.8869 221.958C50.036 221.336 50.3602 220.768 50.8595 220.255C51.3566 219.736 52.0124 219.32 52.827 219.006C53.729 218.658 54.5607 218.535 55.3223 218.637C56.0817 218.733 56.7319 218.994 57.2729 219.42C57.8118 219.84 58.2015 220.362 58.4419 220.985L56.8429 221.602C56.5835 220.929 56.1562 220.457 55.5611 220.184C54.966 219.911 54.2202 219.947 53.3236 220.293C52.4872 220.616 51.9412 221.04 51.6855 221.566C51.4278 222.086 51.4054 222.622 51.6184 223.174C51.8124 223.677 52.1935 224.014 52.7616 224.184C53.3296 224.354 54.1557 224.387 55.2397 224.283C56.743 224.143 57.9187 224.236 58.7667 224.562C59.6126 224.882 60.2148 225.507 60.5733 226.437C60.8222 227.082 60.8672 227.711 60.7084 228.325C60.5496 228.939 60.2092 229.497 59.6872 230C59.1652 230.503 58.4833 230.917 57.6415 231.242C57.0893 231.455 56.5159 231.588 55.9211 231.641C55.3318 231.693 54.7594 231.65 54.2039 231.513C53.654 231.373 53.1613 231.13 52.726 230.783C52.294 230.428 51.9631 229.953 51.7332 229.357L53.324 228.743C53.5349 229.29 53.8435 229.683 54.2497 229.922C54.6559 230.161 55.112 230.277 55.6181 230.27C56.1296 230.261 56.6396 230.158 57.148 229.962C57.9734 229.644 58.5411 229.227 58.8511 228.712C59.161 228.197 59.2042 227.649 58.9807 227.07ZM64.2774 219.628L62.621 220.267L64.75 225.786C64.9272 226.245 65.1384 226.5 65.3837 226.55C65.6345 226.597 65.8856 226.573 66.1371 226.476C66.2628 226.427 66.3898 226.366 66.518 226.291C66.6517 226.214 66.7482 226.155 66.8075 226.113L67.287 227.332C67.1815 227.417 67.0367 227.513 66.8525 227.622C66.676 227.734 66.451 227.843 66.1777 227.948C65.8059 228.092 65.4358 228.15 65.0673 228.122C64.6987 228.095 64.3551 227.945 64.0364 227.672C63.7155 227.394 63.4412 226.96 63.2134 226.369L61.0876 220.859L59.4722 221.482L59.0262 220.326L60.6416 219.703L59.8096 217.546L61.343 216.955L62.175 219.111L63.8314 218.472L64.2774 219.628ZM70.5506 226.073L69.0172 226.665L65.5944 217.792L67.0868 217.216L67.5087 218.212C67.5936 217.765 67.7682 217.371 68.0325 217.031C68.3001 216.682 68.6745 216.415 69.1555 216.23C69.2594 216.19 69.3877 216.156 69.5403 216.129C69.6964 216.093 69.807 216.079 69.8722 216.085L70.4132 217.487C70.1612 217.534 69.9041 217.609 69.6417 217.71C69.1278 217.908 68.7495 218.189 68.5067 218.553C68.2618 218.911 68.1333 219.319 68.1211 219.775L70.5506 226.073ZM78.4613 223.21C77.6358 223.528 76.8463 223.622 76.0928 223.492C75.3425 223.355 74.6735 223.029 74.0858 222.514C73.5034 221.998 73.052 221.324 72.7314 220.493L72.5954 220.141C72.2242 219.178 72.091 218.288 72.1958 217.469C72.3039 216.642 72.5846 215.937 73.0379 215.354C73.4946 214.763 74.0537 214.34 74.7151 214.085C75.5679 213.756 76.336 213.68 77.0194 213.856C77.7061 214.024 78.3017 214.388 78.8063 214.947C79.3142 215.498 79.7274 216.187 80.0458 217.012L80.3084 217.693L74.306 220.008C74.5332 220.549 74.8372 221.003 75.2179 221.371C75.6019 221.731 76.0397 221.971 76.5311 222.089C77.0205 222.202 77.5331 222.155 78.0688 221.948C78.6045 221.741 79.0161 221.457 79.3035 221.095C79.5908 220.733 79.8033 220.315 79.9408 219.841L81.1458 220.205C81.0302 220.752 80.7731 221.307 80.3745 221.869C79.9792 222.423 79.3414 222.87 78.4613 223.21ZM75.1897 215.315C74.5883 215.547 74.1653 215.965 73.9207 216.568C73.6815 217.169 73.6682 217.899 73.8806 218.759L78.3004 217.054L78.2562 216.939C78.0824 216.554 77.8556 216.202 77.5755 215.883C77.2933 215.559 76.9555 215.334 76.562 215.21C76.1664 215.08 75.709 215.115 75.1897 215.315ZM86.514 212.925C86.3094 212.394 85.9885 212.035 85.5512 211.845C85.1173 211.648 84.5942 211.668 83.9819 211.904C83.4134 212.124 83.009 212.443 82.7688 212.862C82.5286 213.281 82.4802 213.677 82.6237 214.049L81.0903 214.64C80.9258 214.214 80.9114 213.745 81.0472 213.234C81.1808 212.718 81.4605 212.23 81.8862 211.771C82.3152 211.304 82.8878 210.932 83.604 210.656C84.5716 210.283 85.4591 210.223 86.2667 210.477C87.0742 210.73 87.6699 211.355 88.0537 212.349L89.6481 216.482C89.762 216.777 89.9078 217.082 90.0857 217.397C90.269 217.709 90.459 217.966 90.6557 218.166L90.7063 218.297L89.1073 218.914C89.0159 218.824 88.9194 218.704 88.8179 218.555C88.7218 218.403 88.6281 218.242 88.5366 218.07C88.3683 218.48 88.1121 218.874 87.768 219.252C87.4293 219.627 86.9866 219.921 86.4399 220.132C85.8386 220.364 85.2668 220.452 84.7245 220.398C84.1855 220.336 83.7133 220.153 83.3079 219.851C82.9079 219.547 82.6141 219.152 82.4264 218.665C82.0574 217.709 82.1387 216.845 82.6705 216.075C83.2002 215.299 84.0746 214.676 85.2937 214.206L86.7861 213.63L86.514 212.925ZM86.1552 218.734C86.7018 218.523 87.122 218.204 87.4156 217.777C87.7071 217.344 87.8695 216.927 87.9027 216.524L87.1973 214.696L85.9509 215.177C85.0872 215.51 84.473 215.904 84.1083 216.359C83.7436 216.813 83.6667 217.314 83.8776 217.861C84.0421 218.287 84.3234 218.593 84.7216 218.779C85.1252 218.962 85.603 218.947 86.1552 218.734ZM93.5351 208.341L91.8787 208.98L94.0077 214.499C94.1848 214.958 94.3961 215.213 94.6414 215.262C94.8921 215.31 95.1433 215.286 95.3947 215.189C95.5205 215.14 95.6474 215.078 95.7757 215.004C95.9094 214.927 96.0059 214.868 96.0651 214.826L96.5447 216.045C96.4392 216.13 96.2944 216.226 96.1102 216.335C95.9336 216.447 95.7087 216.556 95.4354 216.661C95.0636 216.805 94.6935 216.863 94.3249 216.835C93.9564 216.808 93.6128 216.658 93.294 216.385C92.9732 216.107 92.6989 215.673 92.4711 215.082L90.3453 209.572L88.7299 210.195L88.2838 209.039L89.8992 208.416L89.0673 206.259L90.6007 205.668L91.4326 207.824L93.0891 207.185L93.5351 208.341ZM101.422 212.939C101.964 212.73 102.373 212.383 102.651 211.899C102.929 211.415 102.993 210.913 102.843 210.393L104.294 209.833C104.469 210.369 104.48 210.927 104.327 211.507C104.172 212.082 103.886 212.61 103.469 213.091C103.05 213.567 102.526 213.926 101.897 214.169C101.006 214.512 100.19 214.595 99.4489 214.416C98.7058 214.231 98.0596 213.859 97.5105 213.298C96.9668 212.736 96.5421 212.058 96.2363 211.265L96.1034 210.921C95.7955 210.123 95.6578 209.334 95.6902 208.556C95.7206 207.771 95.9502 207.064 96.3791 206.434C96.8058 205.798 97.462 205.31 98.3476 204.968C99.0419 204.7 99.7035 204.608 100.333 204.692C100.965 204.769 101.522 204.993 102.005 205.366C102.492 205.731 102.867 206.214 103.13 206.816L101.679 207.376C101.427 206.838 101.039 206.451 100.515 206.214C99.9931 205.969 99.4289 205.964 98.8221 206.198C98.2044 206.436 97.779 206.783 97.546 207.237C97.3184 207.689 97.2258 208.189 97.268 208.738C97.3135 209.28 97.4365 209.81 97.6368 210.329L97.7697 210.674C97.9701 211.193 98.2362 211.671 98.5681 212.108C98.9001 212.546 99.3021 212.855 99.7743 213.037C100.25 213.212 100.799 213.179 101.422 212.939ZM108.615 211.388L107.082 211.98L102.223 199.385L103.756 198.793L105.597 203.566C105.769 203.066 106.032 202.625 106.387 202.243C106.746 201.854 107.195 201.555 107.737 201.346C108.611 201.009 109.399 200.99 110.099 201.292C110.803 201.586 111.378 202.312 111.825 203.471L114.068 209.285L112.535 209.876L110.286 204.046C110.016 203.346 109.673 202.907 109.259 202.728C108.844 202.548 108.35 202.57 107.776 202.791C107.289 202.979 106.911 203.275 106.64 203.681C106.375 204.085 106.217 204.538 106.167 205.042L108.615 211.388ZM118.357 202.43C118.026 201.572 117.894 200.74 117.96 199.936C118.027 199.132 118.285 198.417 118.734 197.791C119.182 197.16 119.818 196.685 120.643 196.367C121.48 196.044 122.278 195.965 123.039 196.13C123.798 196.29 124.469 196.646 125.053 197.2C125.643 197.751 126.103 198.456 126.434 199.314L126.507 199.503C126.836 200.355 126.968 201.187 126.904 201.997C126.843 202.799 126.585 203.514 126.13 204.142C125.68 204.767 125.04 205.24 124.209 205.561C123.378 205.881 122.583 205.962 121.825 205.802C121.072 205.641 120.4 205.284 119.811 204.733C119.219 204.176 118.759 203.471 118.43 202.619L118.357 202.43ZM119.963 202.027C120.189 202.612 120.491 203.117 120.868 203.543C121.246 203.969 121.676 204.261 122.159 204.421C122.646 204.578 123.172 204.548 123.735 204.331C124.292 204.116 124.696 203.787 124.947 203.345C125.202 202.901 125.327 202.394 125.321 201.825C125.315 201.256 125.199 200.679 124.974 200.094L124.901 199.906C124.675 199.321 124.373 198.815 123.996 198.39C123.618 197.964 123.185 197.672 122.697 197.515C122.207 197.352 121.681 197.379 121.118 197.597C120.566 197.81 120.163 198.141 119.909 198.591C119.654 199.035 119.529 199.541 119.535 200.11C119.546 200.677 119.665 201.253 119.891 201.838L119.963 202.027ZM132.097 192.137L133.63 191.545L137.053 200.418L135.593 200.981L135.225 200.124C135.076 200.552 134.824 200.941 134.47 201.292C134.113 201.637 133.634 201.925 133.032 202.157C132.163 202.492 131.362 202.506 130.628 202.199C129.894 201.892 129.299 201.148 128.843 199.967L126.635 194.244L128.169 193.652L130.383 199.392C130.59 199.928 130.827 200.314 131.094 200.55C131.364 200.778 131.644 200.903 131.934 200.923C132.228 200.935 132.512 200.888 132.785 200.783C133.403 200.545 133.85 200.24 134.128 199.869C134.409 199.491 134.565 199.072 134.596 198.615L132.097 192.137ZM140.111 190.373L138.455 191.012L140.584 196.531C140.761 196.99 140.972 197.244 141.217 197.294C141.468 197.342 141.719 197.317 141.971 197.22C142.097 197.172 142.224 197.11 142.352 197.036C142.485 196.959 142.582 196.9 142.641 196.858L143.121 198.077C143.015 198.161 142.87 198.258 142.686 198.367C142.51 198.479 142.285 198.588 142.011 198.693C141.64 198.836 141.27 198.894 140.901 198.867C140.533 198.84 140.189 198.69 139.87 198.417C139.549 198.139 139.275 197.704 139.047 197.114L136.921 191.604L135.306 192.227L134.86 191.071L136.475 190.447L135.643 188.291L137.177 187.699L138.009 189.856L139.665 189.217L140.111 190.373ZM146.877 191.428C146.546 190.569 146.413 189.738 146.48 188.934C146.546 188.129 146.804 187.414 147.254 186.789C147.701 186.158 148.338 185.683 149.163 185.364C150 185.042 150.798 184.963 151.559 185.128C152.318 185.287 152.989 185.644 153.573 186.197C154.162 186.749 154.623 187.453 154.954 188.312L155.027 188.5C155.356 189.353 155.488 190.184 155.424 190.994C155.362 191.796 155.104 192.511 154.65 193.139C154.2 193.765 153.56 194.238 152.729 194.558C151.898 194.879 151.103 194.959 150.345 194.8C149.591 194.638 148.92 194.282 148.33 193.731C147.739 193.174 147.279 192.469 146.95 191.616L146.877 191.428ZM148.483 191.025C148.709 191.61 149.01 192.115 149.388 192.541C149.766 192.966 150.196 193.259 150.678 193.418C151.166 193.576 151.691 193.546 152.254 193.328C152.812 193.113 153.216 192.785 153.466 192.343C153.722 191.899 153.847 191.392 153.841 190.823C153.835 190.254 153.719 189.677 153.493 189.092L153.42 188.903C153.195 188.318 152.893 187.813 152.515 187.387C152.137 186.961 151.705 186.67 151.217 186.513C150.727 186.35 150.201 186.377 149.638 186.594C149.086 186.807 148.683 187.139 148.429 187.588C148.173 188.032 148.048 188.539 148.054 189.108C148.066 189.675 148.185 190.251 148.41 190.836L148.483 191.025ZM159.357 191.813L156.38 184.097L154.986 184.635L154.54 183.478L155.934 182.941L155.57 181.998C155.203 181.046 155.181 180.216 155.505 179.508C155.833 178.797 156.451 178.266 157.359 177.916C157.692 177.788 158.056 177.697 158.451 177.646L158.84 178.899C158.577 178.95 158.296 179.034 157.995 179.15C157.514 179.335 157.192 179.626 157.031 180.021C156.873 180.409 156.897 180.87 157.104 181.406L157.467 182.349L159.353 181.621L159.799 182.778L157.913 183.505L160.89 191.221L159.357 191.813ZM172.873 183.895C172.788 183.676 172.661 183.493 172.491 183.345C172.324 183.19 172.067 183.091 171.718 183.05C171.367 183.003 170.876 183.033 170.244 183.138C169.18 183.31 168.287 183.315 167.566 183.154C166.844 182.993 166.343 182.549 166.063 181.822C165.881 181.351 165.85 180.871 165.968 180.379C166.089 179.88 166.351 179.418 166.752 178.993C167.157 178.561 167.69 178.217 168.351 177.962C169.062 177.688 169.717 177.579 170.317 177.637C170.92 177.687 171.437 177.87 171.867 178.188C172.296 178.5 172.608 178.91 172.804 179.419L171.27 180.01C171.129 179.644 170.834 179.359 170.385 179.156C169.941 178.95 169.422 178.962 168.826 179.192C168.197 179.434 167.8 179.748 167.634 180.132C167.472 180.509 167.453 180.858 167.577 181.181C167.661 181.4 167.79 181.57 167.962 181.692C168.133 181.808 168.387 181.873 168.726 181.887C169.069 181.899 169.544 181.86 170.15 181.771C171.335 181.603 172.265 181.621 172.941 181.825C173.614 182.023 174.089 182.481 174.365 183.197C174.665 183.973 174.594 184.726 174.153 185.455C173.717 186.182 172.98 186.746 171.942 187.146C171.16 187.448 170.445 187.564 169.796 187.494C169.147 187.424 168.599 187.224 168.151 186.894C167.702 186.559 167.382 186.145 167.192 185.653L168.726 185.062C168.913 185.467 169.161 185.751 169.469 185.915C169.781 186.071 170.112 186.141 170.464 186.124C170.821 186.106 171.155 186.037 171.467 185.916C172.085 185.678 172.507 185.374 172.735 185.003C172.968 184.631 173.014 184.261 172.873 183.895ZM178.045 175.739L176.388 176.378L178.517 181.897C178.694 182.356 178.905 182.61 179.151 182.66C179.402 182.708 179.653 182.683 179.904 182.586C180.03 182.538 180.157 182.476 180.285 182.402C180.419 182.325 180.515 182.266 180.575 182.224L181.054 183.443C180.949 183.527 180.804 183.624 180.62 183.733C180.443 183.845 180.218 183.954 179.945 184.059C179.573 184.202 179.203 184.26 178.834 184.233C178.466 184.206 178.122 184.056 177.803 183.783C177.483 183.505 177.208 183.07 176.981 182.48L174.855 176.97L173.239 177.593L172.793 176.437L174.409 175.813L173.577 173.657L175.11 173.065L175.942 175.222L177.598 174.583L178.045 175.739ZM184.318 182.184L182.784 182.775L179.361 173.903L180.854 173.327L181.276 174.323C181.361 173.876 181.535 173.482 181.8 173.141C182.067 172.793 182.442 172.526 182.923 172.34C183.026 172.3 183.155 172.267 183.307 172.239C183.463 172.204 183.574 172.19 183.639 172.196L184.18 173.598C183.928 173.645 183.671 173.719 183.409 173.82C182.895 174.019 182.517 174.3 182.274 174.663C182.029 175.022 181.9 175.429 181.888 175.886L184.318 182.184ZM192.228 179.32C191.403 179.639 190.613 179.733 189.86 179.603C189.11 179.465 188.441 179.139 187.853 178.625C187.271 178.108 186.819 177.435 186.499 176.604L186.362 176.251C185.991 175.289 185.858 174.398 185.963 173.579C186.071 172.752 186.352 172.048 186.805 171.464C187.262 170.874 187.821 170.451 188.482 170.196C189.335 169.867 190.103 169.79 190.786 169.966C191.473 170.135 192.069 170.498 192.573 171.057C193.081 171.609 193.494 172.297 193.813 173.123L194.075 173.803L188.073 176.119C188.3 176.659 188.604 177.113 188.985 177.482C189.369 177.842 189.807 178.081 190.298 178.2C190.788 178.312 191.3 178.265 191.836 178.059C192.372 177.852 192.783 177.567 193.071 177.205C193.358 176.843 193.57 176.425 193.708 175.952L194.913 176.316C194.797 176.863 194.54 177.417 194.142 177.979C193.746 178.534 193.109 178.981 192.228 179.32ZM188.957 171.426C188.355 171.658 187.932 172.075 187.688 172.678C187.449 173.279 187.435 174.01 187.648 174.87L192.068 173.165L192.023 173.05C191.85 172.665 191.623 172.313 191.343 171.994C191.06 171.669 190.723 171.445 190.329 171.32C189.934 171.19 189.476 171.225 188.957 171.426ZM201.655 172.792C201.57 172.573 201.443 172.39 201.273 172.242C201.106 172.086 200.849 171.988 200.5 171.947C200.149 171.9 199.658 171.929 199.027 172.034C197.962 172.206 197.069 172.212 196.348 172.05C195.626 171.889 195.125 171.445 194.845 170.718C194.663 170.248 194.632 169.767 194.75 169.276C194.871 168.777 195.133 168.315 195.534 167.89C195.939 167.457 196.472 167.113 197.133 166.858C197.844 166.584 198.499 166.476 199.099 166.533C199.702 166.583 200.219 166.767 200.65 167.084C201.078 167.396 201.39 167.807 201.586 168.315L200.053 168.907C199.911 168.54 199.616 168.256 199.167 168.052C198.723 167.846 198.204 167.858 197.608 168.088C196.979 168.331 196.582 168.644 196.416 169.028C196.254 169.405 196.235 169.755 196.359 170.077C196.443 170.296 196.572 170.466 196.745 170.588C196.915 170.704 197.169 170.769 197.508 170.783C197.851 170.795 198.326 170.757 198.932 170.667C200.117 170.499 201.047 170.517 201.723 170.721C202.396 170.92 202.871 171.377 203.147 172.093C203.447 172.87 203.376 173.622 202.935 174.351C202.499 175.078 201.762 175.642 200.724 176.043C199.942 176.344 199.227 176.46 198.578 176.39C197.929 176.32 197.381 176.12 196.933 175.791C196.484 175.455 196.164 175.042 195.974 174.55L197.508 173.958C197.695 174.363 197.943 174.647 198.251 174.811C198.563 174.967 198.894 175.037 199.246 175.021C199.603 175.002 199.937 174.933 200.249 174.813C200.867 174.575 201.29 174.27 201.517 173.9C201.75 173.527 201.796 173.158 201.655 172.792ZM210.33 169.445C210.246 169.226 210.119 169.043 209.949 168.895C209.782 168.739 209.524 168.641 209.175 168.6C208.825 168.553 208.333 168.582 207.702 168.688C206.638 168.859 205.745 168.865 205.023 168.704C204.302 168.542 203.801 168.098 203.52 167.371C203.339 166.901 203.307 166.42 203.425 165.929C203.547 165.43 203.808 164.968 204.21 164.543C204.614 164.11 205.147 163.767 205.809 163.511C206.52 163.237 207.175 163.129 207.775 163.186C208.378 163.236 208.895 163.42 209.325 163.737C209.753 164.05 210.065 164.46 210.262 164.968L208.728 165.56C208.587 165.194 208.292 164.909 207.843 164.705C207.399 164.499 206.879 164.511 206.283 164.741C205.655 164.984 205.257 165.297 205.092 165.682C204.929 166.058 204.91 166.408 205.035 166.73C205.119 166.949 205.248 167.119 205.42 167.241C205.591 167.357 205.845 167.423 206.183 167.437C206.527 167.448 207.002 167.41 207.608 167.32C208.793 167.152 209.723 167.17 210.398 167.374C211.072 167.573 211.546 168.03 211.823 168.746C212.122 169.523 212.051 170.275 211.61 171.004C211.175 171.731 210.438 172.295 209.399 172.696C208.618 172.998 207.902 173.113 207.253 173.043C206.605 172.973 206.057 172.773 205.609 172.444C205.159 172.108 204.84 171.695 204.65 171.203L206.183 170.611C206.371 171.016 206.619 171.3 206.927 171.464C207.238 171.62 207.57 171.69 207.922 171.674C208.279 171.655 208.613 171.586 208.925 171.466C209.542 171.228 209.965 170.923 210.193 170.553C210.426 170.18 210.472 169.811 210.33 169.445Z" fill="black"/>
<defs>
<linearGradient id="paint0_linear_34_7" x1="38.4354" y1="278.243" x2="701.481" y2="274.702" gradientUnits="userSpaceOnUse">
<stop stop-color="#1A7F54"/>
<stop offset="1" stop-color="#7ADBAE"/>
</linearGradient>
<linearGradient id="paint1_linear_34_7" x1="20.9907" y1="304.644" x2="681.712" y2="249.062" gradientUnits="userSpaceOnUse">
<stop stop-color="#1A7F72"/>
<stop offset="1" stop-color="#7ADBAE"/>
</linearGradient>
<clipPath id="clip0_34_7">
<rect width="500" height="663.434" fill="white" transform="matrix(0.00534047 0.999986 0.999986 -0.00534047 37.0593 28.3335)"/>
</clipPath>
<clipPath id="clip1_34_7">
<rect width="500" height="663.434" fill="white" transform="matrix(0.083827 0.99648 0.99648 -0.083827 0 55.6138)"/>
</clipPath>
</defs>
</svg>
